<svg xmlns="http://www.w3.org/2000/svg" width="1440" height="900"><path d="M681,488L761,488L766,405Z" fill="#9c98c7" stroke="#9c98c7" stroke-width="1.51"/><path d="M766,405L672,406L681,488Z" fill="#a19dc9" stroke="#a19dc9" stroke-width="1.51"/><path d="M766,405L761,322L672,406Z" fill="#a4a1cc" stroke="#a4a1cc" stroke-width="1.51"/><path d="M846,490L845,404L766,405Z" fill="#9995c6" stroke="#9995c6" stroke-width="1.51"/><path d="M766,405L845,404L761,322Z" fill="#a09dca" stroke="#a09dca" stroke-width="1.51"/><path d="M761,322L676,319L672,406Z" fill="#a9a7cf" stroke="#a9a7cf" stroke-width="1.51"/><path d="M761,488L846,490L766,405Z" fill="#9894c5" stroke="#9894c5" stroke-width="1.51"/><path d="M767,577L846,490L761,488Z" fill="#938ec3" stroke="#938ec3" stroke-width="1.51"/><path d="M672,406L592,496L681,488Z" fill="#a29ecb" stroke="#a29ecb" stroke-width="1.51"/><path d="M593,320L593,403L672,406Z" fill="#acaad1" stroke="#acaad1" stroke-width="1.51"/><path d="M681,488L678,576L761,488Z" fill="#9994c6" stroke="#9994c6" stroke-width="1.51"/><path d="M592,496L678,576L681,488Z" fill="#9c98c8" stroke="#9c98c8" stroke-width="1.51"/><path d="M593,403L592,496L672,406Z" fill="#a7a3cd" stroke="#a7a3cd" stroke-width="1.51"/><path d="M678,576L767,577L761,488Z" fill="#948fc3" stroke="#948fc3" stroke-width="1.51"/><path d="M845,404L845,317L761,322Z" fill="#a29fcc" stroke="#a29fcc" stroke-width="1.51"/><path d="M761,322L672,237L676,319Z" fill="#aeadd3" stroke="#aeadd3" stroke-width="1.51"/><path d="M931,317L845,317L845,404Z" fill="#9e9bca" stroke="#9e9bca" stroke-width="1.51"/><path d="M676,319L593,320L672,406Z" fill="#adabd2" stroke="#adabd2" stroke-width="1.51"/><path d="M504,492L589,577L592,496Z" fill="#a2a0cc" stroke="#a2a0cc" stroke-width="1.51"/><path d="M592,496L589,577L678,576Z" fill="#9b98c8" stroke="#9b98c8" stroke-width="1.51"/><path d="M847,666L847,583L767,577Z" fill="#8883be" stroke="#8883be" stroke-width="1.51"/><path d="M508,410L592,496L593,403Z" fill="#aba8d0" stroke="#aba8d0" stroke-width="1.51"/><path d="M767,577L847,583L846,490Z" fill="#8d89c0" stroke="#8d89c0" stroke-width="1.51"/><path d="M846,490L935,409L845,404Z" fill="#9591c4" stroke="#9591c4" stroke-width="1.51"/><path d="M762,670L767,577L678,576Z" fill="#8e89c0" stroke="#8e89c0" stroke-width="1.51"/><path d="M676,319L672,237L593,320Z" fill="#b2b2d6" stroke="#b2b2d6" stroke-width="1.51"/><path d="M768,229L672,237L761,322Z" fill="#afaed3" stroke="#afaed3" stroke-width="1.51"/><path d="M593,320L508,410L593,403Z" fill="#b0afd4" stroke="#b0afd4" stroke-width="1.51"/><path d="M940,491L935,409L846,490Z" fill="#908cc2" stroke="#908cc2" stroke-width="1.51"/><path d="M845,317L768,229L761,322Z" fill="#a9a7d0" stroke="#a9a7d0" stroke-width="1.51"/><path d="M852,231L768,229L845,317Z" fill="#aaa8d0" stroke="#aaa8d0" stroke-width="1.51"/><path d="M508,410L504,492L592,496Z" fill="#aaa7d0" stroke="#aaa7d0" stroke-width="1.51"/><path d="M939,581L940,491L846,490Z" fill="#8a86bf" stroke="#8a86bf" stroke-width="1.51"/><path d="M594,660L673,663L678,576Z" fill="#928cc2" stroke="#928cc2" stroke-width="1.51"/><path d="M594,660L678,576L589,577Z" fill="#9693c6" stroke="#9693c6" stroke-width="1.51"/><path d="M673,663L762,670L678,576Z" fill="#8e87bf" stroke="#8e87bf" stroke-width="1.51"/><path d="M847,583L939,581L846,490Z" fill="#8985be" stroke="#8985be" stroke-width="1.51"/><path d="M935,409L931,317L845,404Z" fill="#9996c7" stroke="#9996c7" stroke-width="1.51"/><path d="M930,238L931,317L1020,315Z" fill="#9e9bca" stroke="#9e9bca" stroke-width="1.51"/><path d="M593,320L501,315L508,410Z" fill="#b5b4d7" stroke="#b5b4d7" stroke-width="1.51"/><path d="M672,237L592,234L593,320Z" fill="#b7b7d8" stroke="#b7b7d8" stroke-width="1.51"/><path d="M675,149L592,234L672,237Z" fill="#bbbada" stroke="#bbbada" stroke-width="1.51"/><path d="M930,238L852,231L845,317Z" fill="#a6a4cf" stroke="#a6a4cf" stroke-width="1.51"/><path d="M504,579L594,660L589,577Z" fill="#9a97c8" stroke="#9a97c8" stroke-width="1.51"/><path d="M672,754L761,750L762,670Z" fill="#8578b7" stroke="#8578b7" stroke-width="1.51"/><path d="M592,234L501,315L593,320Z" fill="#b9b9da" stroke="#b9b9da" stroke-width="1.51"/><path d="M508,410L420,409L504,492Z" fill="#b0afd4" stroke="#b0afd4" stroke-width="1.51"/><path d="M762,670L847,666L767,577Z" fill="#8881bc" stroke="#8881bc" stroke-width="1.51"/><path d="M504,492L504,579L589,577Z" fill="#a19fcc" stroke="#a19fcc" stroke-width="1.51"/><path d="M420,577L504,579L504,492Z" fill="#a5a4ce" stroke="#a5a4ce" stroke-width="1.51"/><path d="M937,667L939,581L847,583Z" fill="#827dbb" stroke="#827dbb" stroke-width="1.51"/><path d="M931,317L930,238L845,317Z" fill="#a29fcd" stroke="#a29fcd" stroke-width="1.51"/><path d="M1020,315L931,317L935,409Z" fill="#9895c7" stroke="#9895c7" stroke-width="1.51"/><path d="M760,144L675,149L768,229Z" fill="#b8b6d7" stroke="#b8b6d7" stroke-width="1.51"/><path d="M768,229L675,149L672,237Z" fill="#b7b5d7" stroke="#b7b5d7" stroke-width="1.51"/><path d="M592,234L502,230L501,315Z" fill="#bebedc" stroke="#bebedc" stroke-width="1.51"/><path d="M760,144L768,229L847,152Z" fill="#b5b2d5" stroke="#b5b2d5" stroke-width="1.51"/><path d="M847,152L768,229L852,231Z" fill="#b0add3" stroke="#b0add3" stroke-width="1.51"/><path d="M501,315L420,409L508,410Z" fill="#b6b6d8" stroke="#b6b6d8" stroke-width="1.51"/><path d="M940,491L1023,408L935,409Z" fill="#8f8ac1" stroke="#8f8ac1" stroke-width="1.51"/><path d="M1027,490L1023,408L940,491Z" fill="#8b84be" stroke="#8b84be" stroke-width="1.51"/><path d="M506,149L502,230L592,234Z" fill="#c3c3df" stroke="#c3c3df" stroke-width="1.51"/><path d="M501,315L414,325L420,409Z" fill="#bbbbda" stroke="#bbbbda" stroke-width="1.51"/><path d="M420,409L418,489L504,492Z" fill="#b0aed3" stroke="#b0aed3" stroke-width="1.51"/><path d="M762,670L761,750L847,666Z" fill="#8479b8" stroke="#8479b8" stroke-width="1.51"/><path d="M847,666L937,667L847,583Z" fill="#827bb9" stroke="#827bb9" stroke-width="1.51"/><path d="M672,754L762,670L673,663Z" fill="#8a7fbb" stroke="#8a7fbb" stroke-width="1.51"/><path d="M1022,576L1027,490L940,491Z" fill="#857fbb" stroke="#857fbb" stroke-width="1.51"/><path d="M591,751L672,754L673,663Z" fill="#8c7fbc" stroke="#8c7fbc" stroke-width="1.51"/><path d="M504,579L504,665L594,660Z" fill="#9a95c7" stroke="#9a95c7" stroke-width="1.51"/><path d="M420,577L504,665L504,579Z" fill="#a09dcc" stroke="#a09dcc" stroke-width="1.51"/><path d="M939,581L1022,576L940,491Z" fill="#847fbb" stroke="#847fbb" stroke-width="1.51"/><path d="M851,752L937,667L847,666Z" fill="#7e73b5" stroke="#7e73b5" stroke-width="1.51"/><path d="M591,751L673,663L594,660Z" fill="#9086bf" stroke="#9086bf" stroke-width="1.51"/><path d="M936,151L847,152L852,231Z" fill="#aeacd3" stroke="#aeacd3" stroke-width="1.51"/><path d="M679,59L594,147L675,149Z" fill="#c3c1de" stroke="#c3c1de" stroke-width="1.51"/><path d="M675,149L594,147L592,234Z" fill="#c0bfdc" stroke="#c0bfdc" stroke-width="1.51"/><path d="M1023,408L1020,315L935,409Z" fill="#938ec3" stroke="#938ec3" stroke-width="1.51"/><path d="M930,238L936,151L852,231Z" fill="#a9a7d1" stroke="#a9a7d1" stroke-width="1.51"/><path d="M1021,238L1020,315L1113,319Z" fill="#9a91c6" stroke="#9a91c6" stroke-width="1.51"/><path d="M1019,669L1022,576L939,581Z" fill="#7d76b7" stroke="#7d76b7" stroke-width="1.51"/><path d="M418,489L420,577L504,492Z" fill="#aaa9d1" stroke="#aaa9d1" stroke-width="1.51"/><path d="M413,233L414,325L501,315Z" fill="#c2c1df" stroke="#c2c1df" stroke-width="1.51"/><path d="M420,409L330,406L418,489Z" fill="#b6b4d7" stroke="#b6b4d7" stroke-width="1.51"/><path d="M331,578L416,667L420,577Z" fill="#a6a3cf" stroke="#a6a3cf" stroke-width="1.51"/><path d="M504,665L591,751L594,660Z" fill="#948ac1" stroke="#948ac1" stroke-width="1.51"/><path d="M761,750L851,752L847,666Z" fill="#8073b5" stroke="#8073b5" stroke-width="1.51"/><path d="M845,833L851,752L761,750Z" fill="#7c6bb1" stroke="#7c6bb1" stroke-width="1.51"/><path d="M1021,238L936,151L930,238Z" fill="#a6a2ce" stroke="#a6a2ce" stroke-width="1.51"/><path d="M846,58L762,62L760,144Z" fill="#bbb8d9" stroke="#bbb8d9" stroke-width="1.51"/><path d="M1113,319L1020,315L1023,408Z" fill="#948bc2" stroke="#948bc2" stroke-width="1.51"/><path d="M1020,315L1021,238L930,238Z" fill="#9f9aca" stroke="#9f9aca" stroke-width="1.51"/><path d="M502,230L413,233L501,315Z" fill="#c2c2df" stroke="#c2c2df" stroke-width="1.51"/><path d="M594,147L506,149L592,234Z" fill="#c4c3df" stroke="#c4c3df" stroke-width="1.51"/><path d="M422,144L413,233L502,230Z" fill="#c9cae3" stroke="#c9cae3" stroke-width="1.51"/><path d="M937,667L1019,669L939,581Z" fill="#7c74b5" stroke="#7c74b5" stroke-width="1.51"/><path d="M1108,575L1104,491L1027,490Z" fill="#8176b7" stroke="#8176b7" stroke-width="1.51"/><path d="M1021,748L1019,669L937,667Z" fill="#7769b0" stroke="#7769b0" stroke-width="1.51"/><path d="M851,752L935,751L937,667Z" fill="#796db1" stroke="#796db1" stroke-width="1.51"/><path d="M504,665L502,749L591,751Z" fill="#9488c1" stroke="#9488c1" stroke-width="1.51"/><path d="M675,838L761,750L672,754Z" fill="#8472b5" stroke="#8472b5" stroke-width="1.51"/><path d="M416,667L502,749L504,665Z" fill="#9a90c5" stroke="#9a90c5" stroke-width="1.51"/><path d="M420,577L416,667L504,665Z" fill="#a09bcb" stroke="#a09bcb" stroke-width="1.51"/><path d="M331,495L420,577L418,489Z" fill="#aeabd3" stroke="#aeabd3" stroke-width="1.51"/><path d="M330,406L420,409L414,325Z" fill="#bcbbda" stroke="#bcbbda" stroke-width="1.51"/><path d="M760,144L679,59L675,149Z" fill="#bfbcdb" stroke="#bfbcdb" stroke-width="1.51"/><path d="M594,147L504,65L506,149Z" fill="#cbcae3" stroke="#cbcae3" stroke-width="1.51"/><path d="M846,58L760,144L847,152Z" fill="#b8b5d7" stroke="#b8b5d7" stroke-width="1.51"/><path d="M1027,490L1104,491L1023,408Z" fill="#887ebb" stroke="#887ebb" stroke-width="1.51"/><path d="M1108,575L1027,490L1022,576Z" fill="#8076b7" stroke="#8076b7" stroke-width="1.51"/><path d="M762,62L679,59L760,144Z" fill="#bfbcdb" stroke="#bfbcdb" stroke-width="1.51"/><path d="M331,324L330,406L414,325Z" fill="#c1c0dd" stroke="#c1c0dd" stroke-width="1.51"/><path d="M330,406L331,495L418,489Z" fill="#b5b3d6" stroke="#b5b3d6" stroke-width="1.51"/><path d="M1104,491L1114,407L1023,408Z" fill="#8a7ebb" stroke="#8a7ebb" stroke-width="1.51"/><path d="M675,838L763,837L761,750Z" fill="#806db2" stroke="#806db2" stroke-width="1.51"/><path d="M851,752L931,834L935,751Z" fill="#7565ad" stroke="#7565ad" stroke-width="1.51"/><path d="M675,838L672,754L589,839Z" fill="#8673b5" stroke="#8673b5" stroke-width="1.51"/><path d="M589,839L672,754L591,751Z" fill="#8a79b8" stroke="#8a79b8" stroke-width="1.51"/><path d="M936,61L846,58L847,152Z" fill="#b5b2d6" stroke="#b5b2d6" stroke-width="1.51"/><path d="M766,-30L676,-28L679,59Z" fill="#c7c4df" stroke="#c7c4df" stroke-width="1.51"/><path d="M936,61L847,152L936,151Z" fill="#b1aed5" stroke="#b1aed5" stroke-width="1.51"/><path d="M333,238L331,324L414,325Z" fill="#c6c7e1" stroke="#c6c7e1" stroke-width="1.51"/><path d="M763,837L845,833L761,750Z" fill="#7c69b0" stroke="#7c69b0" stroke-width="1.51"/><path d="M679,59L587,58L594,147Z" fill="#c7c5e0" stroke="#c7c5e0" stroke-width="1.51"/><path d="M506,149L422,144L502,230Z" fill="#cacbe3" stroke="#cacbe3" stroke-width="1.51"/><path d="M595,-25L587,58L679,59Z" fill="#cbc9e2" stroke="#cbc9e2" stroke-width="1.51"/><path d="M1113,665L1108,575L1022,576Z" fill="#796db2" stroke="#796db2" stroke-width="1.51"/><path d="M1104,491L1196,490L1114,407Z" fill="#8476b6" stroke="#8476b6" stroke-width="1.51"/><path d="M1114,407L1113,319L1023,408Z" fill="#8f84be" stroke="#8f84be" stroke-width="1.51"/><path d="M1021,238L1017,150L936,151Z" fill="#a8a2ce" stroke="#a8a2ce" stroke-width="1.51"/><path d="M248,579L331,578L331,495Z" fill="#b1afd5" stroke="#b1afd5" stroke-width="1.51"/><path d="M331,495L331,578L420,577Z" fill="#adabd2" stroke="#adabd2" stroke-width="1.51"/><path d="M675,838L764,923L763,837Z" fill="#7c65ae" stroke="#7c65ae" stroke-width="1.51"/><path d="M501,836L589,839L591,751Z" fill="#8c7aba" stroke="#8c7aba" stroke-width="1.51"/><path d="M501,836L591,751L502,749Z" fill="#9080bd" stroke="#9080bd" stroke-width="1.51"/><path d="M1106,150L1017,150L1021,238Z" fill="#a59bcb" stroke="#a59bcb" stroke-width="1.51"/><path d="M504,65L422,144L506,149Z" fill="#cfcfe6" stroke="#cfcfe6" stroke-width="1.51"/><path d="M413,233L333,238L414,325Z" fill="#c7c8e2" stroke="#c7c8e2" stroke-width="1.51"/><path d="M1019,669L1113,665L1022,576Z" fill="#786cb2" stroke="#786cb2" stroke-width="1.51"/><path d="M935,751L1021,748L937,667Z" fill="#7668af" stroke="#7668af" stroke-width="1.51"/><path d="M1020,838L1021,748L935,751Z" fill="#715ea9" stroke="#715ea9" stroke-width="1.51"/><path d="M416,667L412,748L502,749Z" fill="#9a8ec4" stroke="#9a8ec4" stroke-width="1.51"/><path d="M332,664L412,748L416,667Z" fill="#a096c8" stroke="#a096c8" stroke-width="1.51"/><path d="M587,58L504,65L594,147Z" fill="#cbcae3" stroke="#cbcae3" stroke-width="1.51"/><path d="M1017,150L936,61L936,151Z" fill="#aea9d2" stroke="#aea9d2" stroke-width="1.51"/><path d="M329,144L333,238L413,233Z" fill="#cfcfe5" stroke="#cfcfe5" stroke-width="1.51"/><path d="M845,833L931,834L851,752Z" fill="#7664ad" stroke="#7664ad" stroke-width="1.51"/><path d="M851,925L931,834L845,833Z" fill="#725ca9" stroke="#725ca9" stroke-width="1.51"/><path d="M1113,319L1113,231L1021,238Z" fill="#9a90c5" stroke="#9a90c5" stroke-width="1.51"/><path d="M1017,150L1020,61L936,61Z" fill="#afa8d1" stroke="#afa8d1" stroke-width="1.51"/><path d="M1195,320L1113,231L1113,319Z" fill="#9588c1" stroke="#9588c1" stroke-width="1.51"/><path d="M331,578L332,664L416,667Z" fill="#a6a0ce" stroke="#a6a0ce" stroke-width="1.51"/><path d="M412,748L501,836L502,749Z" fill="#9484bf" stroke="#9484bf" stroke-width="1.51"/><path d="M1021,748L1113,665L1019,669Z" fill="#7464ad" stroke="#7464ad" stroke-width="1.51"/><path d="M1108,575L1196,490L1104,491Z" fill="#7e70b4" stroke="#7e70b4" stroke-width="1.51"/><path d="M1105,757L1113,665L1021,748Z" fill="#705ca9" stroke="#705ca9" stroke-width="1.51"/><path d="M587,58L501,-24L504,65Z" fill="#d1d0e6" stroke="#d1d0e6" stroke-width="1.51"/><path d="M766,-30L679,59L762,62Z" fill="#c3c0dd" stroke="#c3c0dd" stroke-width="1.51"/><path d="M766,-30L762,62L846,58Z" fill="#bfbcdb" stroke="#bfbcdb" stroke-width="1.51"/><path d="M852,-22L766,-30L846,58Z" fill="#bfbbdb" stroke="#bfbbdb" stroke-width="1.51"/><path d="M1114,407L1197,402L1113,319Z" fill="#8d7ebb" stroke="#8d7ebb" stroke-width="1.51"/><path d="M1199,584L1196,490L1108,575Z" fill="#7a6ab1" stroke="#7a6ab1" stroke-width="1.51"/><path d="M330,406L246,491L331,495Z" fill="#b9b7d8" stroke="#b9b7d8" stroke-width="1.51"/><path d="M331,578L248,579L332,664Z" fill="#aca8d2" stroke="#aca8d2" stroke-width="1.51"/><path d="M239,405L246,491L330,406Z" fill="#bebcdb" stroke="#bebcdb" stroke-width="1.51"/><path d="M239,405L330,406L331,324Z" fill="#c2c1dd" stroke="#c2c1dd" stroke-width="1.51"/><path d="M1196,490L1197,402L1114,407Z" fill="#8575b6" stroke="#8575b6" stroke-width="1.51"/><path d="M763,837L764,923L845,833Z" fill="#7861ac" stroke="#7861ac" stroke-width="1.51"/><path d="M671,924L764,923L675,838Z" fill="#7c63ad" stroke="#7c63ad" stroke-width="1.51"/><path d="M671,924L675,838L589,839Z" fill="#836bb2" stroke="#836bb2" stroke-width="1.51"/><path d="M588,922L671,924L589,839Z" fill="#826ab1" stroke="#826ab1" stroke-width="1.51"/><path d="M243,318L239,405L331,324Z" fill="#c7c6e0" stroke="#c7c6e0" stroke-width="1.51"/><path d="M936,61L852,-22L846,58Z" fill="#b9b5d8" stroke="#b9b5d8" stroke-width="1.51"/><path d="M935,-25L852,-22L936,61Z" fill="#b9b5d8" stroke="#b9b5d8" stroke-width="1.51"/><path d="M1113,231L1106,150L1021,238Z" fill="#a196c8" stroke="#a196c8" stroke-width="1.51"/><path d="M1192,152L1106,150L1113,231Z" fill="#a192c7" stroke="#a192c7" stroke-width="1.51"/><path d="M676,-28L595,-25L679,59Z" fill="#cbc8e1" stroke="#cbc8e1" stroke-width="1.51"/><path d="M504,65L421,60L422,144Z" fill="#d3d2e8" stroke="#d3d2e8" stroke-width="1.51"/><path d="M1106,150L1020,61L1017,150Z" fill="#aaa0ce" stroke="#aaa0ce" stroke-width="1.51"/><path d="M422,144L329,144L413,233Z" fill="#d1d0e6" stroke="#d1d0e6" stroke-width="1.51"/><path d="M333,238L243,318L331,324Z" fill="#cacbe4" stroke="#cacbe4" stroke-width="1.51"/><path d="M501,-24L421,60L504,65Z" fill="#d5d4e8" stroke="#d5d4e8" stroke-width="1.51"/><path d="M1197,402L1195,320L1113,319Z" fill="#8e7fbb" stroke="#8e7fbb" stroke-width="1.51"/><path d="M246,491L248,579L331,495Z" fill="#b5b3d6" stroke="#b5b3d6" stroke-width="1.51"/><path d="M332,664L331,754L412,748Z" fill="#a093c7" stroke="#a093c7" stroke-width="1.51"/><path d="M242,667L248,579L160,576Z" fill="#b0acd4" stroke="#b0acd4" stroke-width="1.51"/><path d="M421,60L329,144L422,144Z" fill="#d5d5e9" stroke="#d5d5e9" stroke-width="1.51"/><path d="M246,235L243,318L333,238Z" fill="#cfcfe5" stroke="#cfcfe5" stroke-width="1.51"/><path d="M933,927L1020,838L931,834Z" fill="#6d55a6" stroke="#6d55a6" stroke-width="1.51"/><path d="M931,834L1020,838L935,751Z" fill="#705daa" stroke="#705daa" stroke-width="1.51"/><path d="M1020,838L1105,757L1021,748Z" fill="#6e58a6" stroke="#6e58a6" stroke-width="1.51"/><path d="M1113,665L1199,584L1108,575Z" fill="#7567ae" stroke="#7567ae" stroke-width="1.51"/><path d="M506,927L588,922L589,839Z" fill="#876eb4" stroke="#876eb4" stroke-width="1.51"/><path d="M1190,668L1199,584L1113,665Z" fill="#7260ab" stroke="#7260ab" stroke-width="1.51"/><path d="M1196,490L1281,401L1197,402Z" fill="#8370b4" stroke="#8370b4" stroke-width="1.51"/><path d="M242,667L331,754L332,664Z" fill="#a69bcb" stroke="#a69bcb" stroke-width="1.51"/><path d="M412,748L414,842L501,836Z" fill="#9582be" stroke="#9582be" stroke-width="1.51"/><path d="M501,836L506,927L589,839Z" fill="#8b74b7" stroke="#8b74b7" stroke-width="1.51"/><path d="M764,923L851,925L845,833Z" fill="#745ba9" stroke="#745ba9" stroke-width="1.51"/><path d="M759,1008L851,925L764,923Z" fill="#7358a6" stroke="#7358a6" stroke-width="1.51"/><path d="M331,754L414,842L412,748Z" fill="#9a89c2" stroke="#9a89c2" stroke-width="1.51"/><path d="M845,-117L768,-110L766,-30Z" fill="#c5c1de" stroke="#c5c1de" stroke-width="1.51"/><path d="M1020,61L935,-25L936,61Z" fill="#b4aed5" stroke="#b4aed5" stroke-width="1.51"/><path d="M421,60L331,56L329,144Z" fill="#d9d9eb" stroke="#d9d9eb" stroke-width="1.51"/><path d="M595,-25L501,-24L587,58Z" fill="#d1d0e6" stroke="#d1d0e6" stroke-width="1.51"/><path d="M503,-110L501,-24L595,-25Z" fill="#d5d5e8" stroke="#d5d5e8" stroke-width="1.51"/><path d="M329,144L246,235L333,238Z" fill="#d3d3e7" stroke="#d3d3e7" stroke-width="1.51"/><path d="M154,410L158,490L239,405Z" fill="#c2bfdd" stroke="#c2bfdd" stroke-width="1.51"/><path d="M1198,747L1190,668L1113,665Z" fill="#6e58a7" stroke="#6e58a7" stroke-width="1.51"/><path d="M1195,320L1199,229L1113,231Z" fill="#9787c0" stroke="#9787c0" stroke-width="1.51"/><path d="M1106,150L1106,63L1020,61Z" fill="#aa9ecd" stroke="#aa9ecd" stroke-width="1.51"/><path d="M1020,61L1021,-26L935,-25Z" fill="#b5add4" stroke="#b5add4" stroke-width="1.51"/><path d="M1278,315L1199,229L1195,320Z" fill="#9280bd" stroke="#9280bd" stroke-width="1.51"/><path d="M1281,401L1195,320L1197,402Z" fill="#8976b7" stroke="#8976b7" stroke-width="1.51"/><path d="M851,925L933,927L931,834Z" fill="#6e56a6" stroke="#6e56a6" stroke-width="1.51"/><path d="M1020,838L1104,833L1105,757Z" fill="#6a51a3" stroke="#6a51a3" stroke-width="1.51"/><path d="M853,1016L933,927L851,925Z" fill="#6c52a3" stroke="#6c52a3" stroke-width="1.51"/><path d="M331,754L336,844L414,842Z" fill="#9a86c1" stroke="#9a86c1" stroke-width="1.51"/><path d="M248,579L242,667L332,664Z" fill="#aba6d1" stroke="#aba6d1" stroke-width="1.51"/><path d="M160,576L248,579L246,491Z" fill="#b6b2d7" stroke="#b6b2d7" stroke-width="1.51"/><path d="M419,922L506,927L501,836Z" fill="#8d74b7" stroke="#8d74b7" stroke-width="1.51"/><path d="M673,1015L759,1008L671,924Z" fill="#785ba8" stroke="#785ba8" stroke-width="1.51"/><path d="M671,924L759,1008L764,923Z" fill="#775ba8" stroke="#775ba8" stroke-width="1.51"/><path d="M1192,152L1106,63L1106,150Z" fill="#a697c9" stroke="#a697c9" stroke-width="1.51"/><path d="M1105,757L1198,747L1113,665Z" fill="#6d57a6" stroke="#6d57a6" stroke-width="1.51"/><path d="M1021,926L1104,833L1020,838Z" fill="#684ca1" stroke="#684ca1" stroke-width="1.51"/><path d="M420,-22L331,56L421,60Z" fill="#dbdaeb" stroke="#dbdaeb" stroke-width="1.51"/><path d="M329,144L244,145L246,235Z" fill="#d8d8ea" stroke="#d8d8ea" stroke-width="1.51"/><path d="M1199,229L1192,152L1113,231Z" fill="#9c8dc4" stroke="#9c8dc4" stroke-width="1.51"/><path d="M501,-24L420,-22L421,60Z" fill="#d9d8ea" stroke="#d9d8ea" stroke-width="1.51"/><path d="M414,842L419,922L501,836Z" fill="#917aba" stroke="#917aba" stroke-width="1.51"/><path d="M239,842L336,844L331,754Z" fill="#9e8ac3" stroke="#9e8ac3" stroke-width="1.51"/><path d="M766,-30L679,-111L676,-28Z" fill="#cac6e0" stroke="#cac6e0" stroke-width="1.51"/><path d="M676,-28L594,-112L595,-25Z" fill="#cfcde4" stroke="#cfcde4" stroke-width="1.51"/><path d="M501,-24L503,-110L420,-22Z" fill="#d9d9eb" stroke="#d9d9eb" stroke-width="1.51"/><path d="M845,-117L766,-30L852,-22Z" fill="#c2bedc" stroke="#c2bedc" stroke-width="1.51"/><path d="M768,-110L679,-111L766,-30Z" fill="#c9c5e0" stroke="#c9c5e0" stroke-width="1.51"/><path d="M940,-107L845,-117L852,-22Z" fill="#bfbbdb" stroke="#bfbbdb" stroke-width="1.51"/><path d="M1106,63L1021,-26L1020,61Z" fill="#b0a5d0" stroke="#b0a5d0" stroke-width="1.51"/><path d="M1107,-29L1021,-26L1106,63Z" fill="#b0a4d0" stroke="#b0a4d0" stroke-width="1.51"/><path d="M1199,584L1280,496L1196,490Z" fill="#7a67af" stroke="#7a67af" stroke-width="1.51"/><path d="M1199,229L1280,151L1192,152Z" fill="#9d8ac2" stroke="#9d8ac2" stroke-width="1.51"/><path d="M1283,575L1280,496L1199,584Z" fill="#7662ad" stroke="#7662ad" stroke-width="1.51"/><path d="M1283,575L1199,584L1281,664Z" fill="#705daa" stroke="#705daa" stroke-width="1.51"/><path d="M1280,496L1281,401L1196,490Z" fill="#7f6bb1" stroke="#7f6bb1" stroke-width="1.51"/><path d="M243,60L244,145L329,144Z" fill="#dddced" stroke="#dddced" stroke-width="1.51"/><path d="M154,410L239,405L154,319Z" fill="#c8c7e1" stroke="#c8c7e1" stroke-width="1.51"/><path d="M239,405L158,490L246,491Z" fill="#bebbda" stroke="#bebbda" stroke-width="1.51"/><path d="M239,405L243,318L154,319Z" fill="#c9c9e2" stroke="#c9c9e2" stroke-width="1.51"/><path d="M1197,836L1198,747L1105,757Z" fill="#684ca0" stroke="#684ca0" stroke-width="1.51"/><path d="M673,1015L671,924L590,1013Z" fill="#7b5faa" stroke="#7b5faa" stroke-width="1.51"/><path d="M590,1013L671,924L588,922Z" fill="#7f64ad" stroke="#7f64ad" stroke-width="1.51"/><path d="M336,844L419,922L414,842Z" fill="#947dbc" stroke="#947dbc" stroke-width="1.51"/><path d="M933,927L1021,926L1020,838Z" fill="#694ea2" stroke="#694ea2" stroke-width="1.51"/><path d="M1104,833L1197,836L1105,757Z" fill="#674ba1" stroke="#674ba1" stroke-width="1.51"/><path d="M938,1010L1021,926L933,927Z" fill="#674ba0" stroke="#674ba0" stroke-width="1.51"/><path d="M154,319L243,318L159,237Z" fill="#d0d0e7" stroke="#d0d0e7" stroke-width="1.51"/><path d="M679,-111L594,-112L676,-28Z" fill="#cfcce4" stroke="#cfcce4" stroke-width="1.51"/><path d="M845,-117L594,-112L679,-111Z" fill="#ccc9e2" stroke="#ccc9e2" stroke-width="1.51"/><path d="M1281,401L1278,315L1195,320Z" fill="#8b77b8" stroke="#8b77b8" stroke-width="1.51"/><path d="M590,1013L588,922L506,927Z" fill="#8368b0" stroke="#8368b0" stroke-width="1.51"/><path d="M242,667L239,756L331,754Z" fill="#a698ca" stroke="#a698ca" stroke-width="1.51"/><path d="M417,1013L506,927L419,922Z" fill="#8b70b4" stroke="#8b70b4" stroke-width="1.51"/><path d="M163,751L239,756L242,667Z" fill="#a89acb" stroke="#a89acb" stroke-width="1.51"/><path d="M940,-107L852,-22L935,-25Z" fill="#bcb7da" stroke="#bcb7da" stroke-width="1.51"/><path d="M768,-110L845,-117L679,-111Z" fill="#c8c4e0" stroke="#c8c4e0" stroke-width="1.51"/><path d="M158,490L160,576L246,491Z" fill="#bab7d9" stroke="#bab7d9" stroke-width="1.51"/><path d="M153,670L160,576L74,581Z" fill="#b4b0d6" stroke="#b4b0d6" stroke-width="1.51"/><path d="M1281,664L1199,584L1190,668Z" fill="#6f5ba8" stroke="#6f5ba8" stroke-width="1.51"/><path d="M1280,496L1365,407L1281,401Z" fill="#7f68af" stroke="#7f68af" stroke-width="1.51"/><path d="M159,237L243,318L246,235Z" fill="#d2d2e7" stroke="#d2d2e7" stroke-width="1.51"/><path d="M500,1016L590,1013L506,927Z" fill="#8367af" stroke="#8367af" stroke-width="1.51"/><path d="M673,1015L853,1016L759,1008Z" fill="#7154a3" stroke="#7154a3" stroke-width="1.51"/><path d="M759,1008L853,1016L851,925Z" fill="#6f53a3" stroke="#6f53a3" stroke-width="1.51"/><path d="M1021,-26L940,-107L935,-25Z" fill="#b8b3d8" stroke="#b8b3d8" stroke-width="1.51"/><path d="M594,-112L503,-110L595,-25Z" fill="#d5d3e7" stroke="#d5d3e7" stroke-width="1.51"/><path d="M245,-30L243,60L331,56Z" fill="#e3e2f0" stroke="#e3e2f0" stroke-width="1.51"/><path d="M1278,315L1277,229L1199,229Z" fill="#9380bd" stroke="#9380bd" stroke-width="1.51"/><path d="M1192,152L1198,63L1106,63Z" fill="#a696c8" stroke="#a696c8" stroke-width="1.51"/><path d="M1021,-26L1021,-112L940,-107Z" fill="#b8b0d7" stroke="#b8b0d7" stroke-width="1.51"/><path d="M1280,151L1277,229L1363,151Z" fill="#9982bf" stroke="#9982bf" stroke-width="1.51"/><path d="M160,152L159,237L246,235Z" fill="#d9d8ea" stroke="#d9d8ea" stroke-width="1.51"/><path d="M1282,752L1281,664L1198,747Z" fill="#684ca1" stroke="#684ca1" stroke-width="1.51"/><path d="M1198,747L1281,664L1190,668Z" fill="#6b53a4" stroke="#6b53a4" stroke-width="1.51"/><path d="M1110,929L1197,836L1104,833Z" fill="#63439c" stroke="#63439c" stroke-width="1.51"/><path d="M853,1016L938,1010L933,927Z" fill="#694da0" stroke="#694da0" stroke-width="1.51"/><path d="M1280,151L1198,63L1192,152Z" fill="#a28ec4" stroke="#a28ec4" stroke-width="1.51"/><path d="M1193,-27L1107,-29L1106,63Z" fill="#ae9dcd" stroke="#ae9dcd" stroke-width="1.51"/><path d="M77,409L158,490L154,410Z" fill="#c5c2de" stroke="#c5c2de" stroke-width="1.51"/><path d="M73,493L160,576L158,490Z" fill="#bcb9da" stroke="#bcb9da" stroke-width="1.51"/><path d="M160,576L153,670L242,667Z" fill="#b0a9d2" stroke="#b0a9d2" stroke-width="1.51"/><path d="M244,145L160,152L246,235Z" fill="#dadaeb" stroke="#dadaeb" stroke-width="1.51"/><path d="M331,56L243,60L329,144Z" fill="#dddded" stroke="#dddded" stroke-width="1.51"/><path d="M330,-31L331,56L420,-22Z" fill="#dfdeed" stroke="#dfdeed" stroke-width="1.51"/><path d="M673,1015L500,1016L853,1016Z" fill="#775aa7" stroke="#775aa7" stroke-width="1.51"/><path d="M590,1013L500,1016L673,1015Z" fill="#7e60ab" stroke="#7e60ab" stroke-width="1.51"/><path d="M417,1013L500,1016L506,927Z" fill="#876bb1" stroke="#876bb1" stroke-width="1.51"/><path d="M326,922L419,922L336,844Z" fill="#957bbb" stroke="#957bbb" stroke-width="1.51"/><path d="M417,-114L330,-31L420,-22Z" fill="#dfdfee" stroke="#dfdfee" stroke-width="1.51"/><path d="M1110,929L1104,833L1021,926Z" fill="#64459e" stroke="#64459e" stroke-width="1.51"/><path d="M239,842L326,922L336,844Z" fill="#9a82bf" stroke="#9a82bf" stroke-width="1.51"/><path d="M239,842L331,754L239,756Z" fill="#a290c6" stroke="#a290c6" stroke-width="1.51"/><path d="M1023,1014L1110,929L1021,926Z" fill="#62429b" stroke="#62429b" stroke-width="1.51"/><path d="M163,751L239,842L239,756Z" fill="#a492c7" stroke="#a492c7" stroke-width="1.51"/><path d="M1277,229L1280,151L1199,229Z" fill="#9984c0" stroke="#9984c0" stroke-width="1.51"/><path d="M1364,238L1277,229L1278,315Z" fill="#917abb" stroke="#917abb" stroke-width="1.51"/><path d="M1363,317L1278,315L1281,401Z" fill="#8972b6" stroke="#8972b6" stroke-width="1.51"/><path d="M1107,-29L1021,-112L1021,-26Z" fill="#b4aad3" stroke="#b4aad3" stroke-width="1.51"/><path d="M940,-107L1021,-112L845,-117Z" fill="#bcb8da" stroke="#bcb8da" stroke-width="1.51"/><path d="M160,58L160,152L244,145Z" fill="#e1e0ee" stroke="#e1e0ee" stroke-width="1.51"/><path d="M73,321L77,409L154,319Z" fill="#cfcde4" stroke="#cfcde4" stroke-width="1.51"/><path d="M845,-117L417,-114L594,-112Z" fill="#d2d0e6" stroke="#d2d0e6" stroke-width="1.51"/><path d="M594,-112L417,-114L503,-110Z" fill="#dadaeb" stroke="#dadaeb" stroke-width="1.51"/><path d="M503,-110L417,-114L420,-22Z" fill="#dddcec" stroke="#dddcec" stroke-width="1.51"/><path d="M153,670L163,751L242,667Z" fill="#aca0ce" stroke="#aca0ce" stroke-width="1.51"/><path d="M1279,834L1198,747L1197,836Z" fill="#63439c" stroke="#63439c" stroke-width="1.51"/><path d="M1279,834L1282,752L1198,747Z" fill="#64449d" stroke="#64449d" stroke-width="1.51"/><path d="M1369,492L1280,496L1283,575Z" fill="#765fab" stroke="#765fab" stroke-width="1.51"/><path d="M154,319L77,409L154,410Z" fill="#cbc9e1" stroke="#cbc9e1" stroke-width="1.51"/><path d="M153,670L74,755L163,751Z" fill="#ac9ecd" stroke="#ac9ecd" stroke-width="1.51"/><path d="M73,321L154,319L75,229Z" fill="#d5d4e8" stroke="#d5d4e8" stroke-width="1.51"/><path d="M1369,492L1365,407L1280,496Z" fill="#7b62ad" stroke="#7b62ad" stroke-width="1.51"/><path d="M1369,492L1283,575L1366,583Z" fill="#725aa9" stroke="#725aa9" stroke-width="1.51"/><path d="M938,1010L1023,1014L1021,926Z" fill="#63459c" stroke="#63459c" stroke-width="1.51"/><path d="M853,1016L1023,1014L938,1010Z" fill="#65499e" stroke="#65499e" stroke-width="1.51"/><path d="M335,1008L417,1013L419,922Z" fill="#8d71b5" stroke="#8d71b5" stroke-width="1.51"/><path d="M335,1008L419,922L326,922Z" fill="#9275b7" stroke="#9275b7" stroke-width="1.51"/><path d="M1366,583L1283,575L1281,664Z" fill="#6d57a6" stroke="#6d57a6" stroke-width="1.51"/><path d="M77,409L73,493L158,490Z" fill="#c3c0dd" stroke="#c3c0dd" stroke-width="1.51"/><path d="M1364,238L1363,317L1453,315Z" fill="#8a70b5" stroke="#8a70b5" stroke-width="1.51"/><path d="M1365,407L1363,317L1281,401Z" fill="#846cb2" stroke="#846cb2" stroke-width="1.51"/><path d="M77,409L-11,493L73,493Z" fill="#c6c2de" stroke="#c6c2de" stroke-width="1.51"/><path d="M75,229L154,319L159,237Z" fill="#d6d6e9" stroke="#d6d6e9" stroke-width="1.51"/><path d="M1369,663L1366,583L1281,664Z" fill="#6a51a4" stroke="#6a51a4" stroke-width="1.51"/><path d="M73,493L74,581L160,576Z" fill="#bbb7d9" stroke="#bbb7d9" stroke-width="1.51"/><path d="M1107,-29L1112,-113L1021,-112Z" fill="#b4a7d2" stroke="#b4a7d2" stroke-width="1.51"/><path d="M1198,63L1193,-27L1106,63Z" fill="#aa98cb" stroke="#aa98cb" stroke-width="1.51"/><path d="M1283,-22L1193,-27L1198,63Z" fill="#aa94c8" stroke="#aa94c8" stroke-width="1.51"/><path d="M1280,62L1198,63L1280,151Z" fill="#a28dc5" stroke="#a28dc5" stroke-width="1.51"/><path d="M330,-107L245,-30L330,-31Z" fill="#e5e5f1" stroke="#e5e5f1" stroke-width="1.51"/><path d="M330,-31L245,-30L331,56Z" fill="#e3e2ef" stroke="#e3e2ef" stroke-width="1.51"/><path d="M243,60L160,58L244,145Z" fill="#e1e0ee" stroke="#e1e0ee" stroke-width="1.51"/><path d="M160,152L75,229L159,237Z" fill="#dbdbeb" stroke="#dbdbeb" stroke-width="1.51"/><path d="M1363,317L1364,238L1278,315Z" fill="#8d75b8" stroke="#8d75b8" stroke-width="1.51"/><path d="M1453,315L1363,317L1365,407Z" fill="#856ab2" stroke="#856ab2" stroke-width="1.51"/><path d="M417,-114L330,-107L330,-31Z" fill="#e3e2ef" stroke="#e3e2ef" stroke-width="1.51"/><path d="M1363,151L1280,62L1280,151Z" fill="#9e85c1" stroke="#9e85c1" stroke-width="1.51"/><path d="M156,842L239,842L163,751Z" fill="#a48fc6" stroke="#a48fc6" stroke-width="1.51"/><path d="M154,925L246,928L239,842Z" fill="#9d83bf" stroke="#9d83bf" stroke-width="1.51"/><path d="M239,842L246,928L326,922Z" fill="#9b80be" stroke="#9b80be" stroke-width="1.51"/><path d="M1282,752L1369,663L1281,664Z" fill="#674ba0" stroke="#674ba0" stroke-width="1.51"/><path d="M1110,929L1199,927L1197,836Z" fill="#5f3c99" stroke="#5f3c99" stroke-width="1.51"/><path d="M1196,1008L1199,927L1110,929Z" fill="#5b3695" stroke="#5b3695" stroke-width="1.51"/><path d="M1200,-109L1112,-113L1193,-27Z" fill="#b09ecd" stroke="#b09ecd" stroke-width="1.51"/><path d="M1193,-27L1112,-113L1107,-29Z" fill="#b1a0cf" stroke="#b1a0cf" stroke-width="1.51"/><path d="M1021,-112L1112,-113L845,-117Z" fill="#b9b2d7" stroke="#b9b2d7" stroke-width="1.51"/><path d="M1276,920L1279,834L1197,836Z" fill="#5d3997" stroke="#5d3997" stroke-width="1.51"/><path d="M72,148L75,229L160,152Z" fill="#e0dfee" stroke="#e0dfee" stroke-width="1.51"/><path d="M154,-23L160,58L243,60Z" fill="#e7e6f2" stroke="#e7e6f2" stroke-width="1.51"/><path d="M246,928L335,1008L326,922Z" fill="#9579b9" stroke="#9579b9" stroke-width="1.51"/><path d="M1459,488L1455,406L1369,492Z" fill="#775ca9" stroke="#775ca9" stroke-width="1.51"/><path d="M1365,757L1369,663L1282,752Z" fill="#63439d" stroke="#63439d" stroke-width="1.51"/><path d="M74,581L71,670L153,670Z" fill="#b4add4" stroke="#b4add4" stroke-width="1.51"/><path d="M-12,581L71,670L74,581Z" fill="#b8b3d8" stroke="#b8b3d8" stroke-width="1.51"/><path d="M-11,493L74,581L73,493Z" fill="#c0bcdb" stroke="#c0bcdb" stroke-width="1.51"/><path d="M74,755L156,842L163,751Z" fill="#a896c9" stroke="#a896c9" stroke-width="1.51"/><path d="M1023,1014L1113,1016L1110,929Z" fill="#5e3c97" stroke="#5e3c97" stroke-width="1.51"/><path d="M853,1016L1113,1016L1023,1014Z" fill="#61439b" stroke="#61439b" stroke-width="1.51"/><path d="M1364,238L1363,151L1277,229Z" fill="#957dbc" stroke="#957dbc" stroke-width="1.51"/><path d="M1450,234L1363,151L1364,238Z" fill="#9278b9" stroke="#9278b9" stroke-width="1.51"/><path d="M160,58L72,148L160,152Z" fill="#e3e3f0" stroke="#e3e3f0" stroke-width="1.51"/><path d="M-15,405L77,409L73,321Z" fill="#cecce3" stroke="#cecce3" stroke-width="1.51"/><path d="M-15,405L-11,493L77,409Z" fill="#c9c6e0" stroke="#c9c6e0" stroke-width="1.51"/><path d="M67,66L72,148L160,58Z" fill="#e7e6f2" stroke="#e7e6f2" stroke-width="1.51"/><path d="M1276,920L1197,836L1199,927Z" fill="#5c3796" stroke="#5c3796" stroke-width="1.51"/><path d="M1364,836L1365,757L1279,834Z" fill="#5d3897" stroke="#5d3897" stroke-width="1.51"/><path d="M1279,834L1365,757L1282,752Z" fill="#603e99" stroke="#603e99" stroke-width="1.51"/><path d="M71,670L74,755L153,670Z" fill="#afa4cf" stroke="#afa4cf" stroke-width="1.51"/><path d="M1280,62L1283,-22L1198,63Z" fill="#a690c6" stroke="#a690c6" stroke-width="1.51"/><path d="M1363,60L1283,-22L1280,62Z" fill="#a48ac3" stroke="#a48ac3" stroke-width="1.51"/><path d="M1279,1016L1276,920L1199,927Z" fill="#572e91" stroke="#572e91" stroke-width="1.51"/><path d="M1279,-107L1200,-109L1193,-27Z" fill="#ad98ca" stroke="#ad98ca" stroke-width="1.51"/><path d="M245,-30L154,-23L243,60Z" fill="#e7e6f1" stroke="#e7e6f1" stroke-width="1.51"/><path d="M330,-107L243,-112L245,-30Z" fill="#e8e7f2" stroke="#e8e7f2" stroke-width="1.51"/><path d="M417,-114L243,-112L330,-107Z" fill="#e6e5f1" stroke="#e6e5f1" stroke-width="1.51"/><path d="M-15,405L73,321L-20,319Z" fill="#d2d1e6" stroke="#d2d1e6" stroke-width="1.51"/><path d="M71,670L-17,752L74,755Z" fill="#b0a1cf" stroke="#b0a1cf" stroke-width="1.51"/><path d="M160,-116L154,-23L245,-30Z" fill="#eceaf4" stroke="#eceaf4" stroke-width="1.51"/><path d="M1369,492L1455,406L1365,407Z" fill="#7b60ac" stroke="#7b60ac" stroke-width="1.51"/><path d="M1459,488L1369,492L1449,576Z" fill="#7157a6" stroke="#7157a6" stroke-width="1.51"/><path d="M1369,492L1366,583L1449,576Z" fill="#7056a6" stroke="#7056a6" stroke-width="1.51"/><path d="M-20,319L73,321L-10,231Z" fill="#d8d8ea" stroke="#d8d8ea" stroke-width="1.51"/><path d="M1113,1016L1196,1008L1110,929Z" fill="#5b3794" stroke="#5b3794" stroke-width="1.51"/><path d="M246,928L242,1007L335,1008Z" fill="#9578b9" stroke="#9578b9" stroke-width="1.51"/><path d="M335,1008L153,1014L417,1013Z" fill="#9273b6" stroke="#9273b6" stroke-width="1.51"/><path d="M417,1013L153,1014L500,1016Z" fill="#8e70b4" stroke="#8e70b4" stroke-width="1.51"/><path d="M154,925L242,1007L246,928Z" fill="#9a7cbb" stroke="#9a7cbb" stroke-width="1.51"/><path d="M154,925L239,842L156,842Z" fill="#a087c1" stroke="#a087c1" stroke-width="1.51"/><path d="M1449,576L1366,583L1369,663Z" fill="#6a50a3" stroke="#6a50a3" stroke-width="1.51"/><path d="M1454,669L1449,576L1369,663Z" fill="#664a9f" stroke="#664a9f" stroke-width="1.51"/><path d="M1363,151L1363,60L1280,62Z" fill="#9f85c1" stroke="#9f85c1" stroke-width="1.51"/><path d="M1455,406L1453,315L1365,407Z" fill="#8065ae" stroke="#8065ae" stroke-width="1.51"/><path d="M1450,234L1453,315L1541,236Z" fill="#896db3" stroke="#896db3" stroke-width="1.51"/><path d="M75,841L154,925L156,842Z" fill="#a389c3" stroke="#a389c3" stroke-width="1.51"/><path d="M-11,493L-12,581L74,581Z" fill="#bebadb" stroke="#bebadb" stroke-width="1.51"/><path d="M74,755L75,841L156,842Z" fill="#a892c7" stroke="#a892c7" stroke-width="1.51"/><path d="M-19,664L-12,581L-100,579Z" fill="#bbb6d9" stroke="#bbb6d9" stroke-width="1.51"/><path d="M1283,-22L1279,-107L1193,-27Z" fill="#ab94c9" stroke="#ab94c9" stroke-width="1.51"/><path d="M1458,149L1363,60L1363,151Z" fill="#9a7ebd" stroke="#9a7ebd" stroke-width="1.51"/><path d="M-100,579L-12,581L-11,493Z" fill="#c0bcdc" stroke="#c0bcdc" stroke-width="1.51"/><path d="M-10,231L73,321L75,229Z" fill="#dad9eb" stroke="#dad9eb" stroke-width="1.51"/><path d="M-10,231L75,229L72,148Z" fill="#e0dfee" stroke="#e0dfee" stroke-width="1.51"/><path d="M1372,929L1364,836L1276,920Z" fill="#562c91" stroke="#562c91" stroke-width="1.51"/><path d="M1276,920L1364,836L1279,834Z" fill="#5b3494" stroke="#5b3494" stroke-width="1.51"/><path d="M1450,747L1454,669L1369,663Z" fill="#62429b" stroke="#62429b" stroke-width="1.51"/><path d="M76,-31L67,66L160,58Z" fill="#ebe9f3" stroke="#ebe9f3" stroke-width="1.51"/><path d="M-13,842L75,841L74,755Z" fill="#ab95c9" stroke="#ab95c9" stroke-width="1.51"/><path d="M1453,315L1450,234L1364,238Z" fill="#8c71b5" stroke="#8c71b5" stroke-width="1.51"/><path d="M-10,146L-10,231L72,148Z" fill="#e3e3ef" stroke="#e3e3ef" stroke-width="1.51"/><path d="M1450,747L1369,663L1365,757Z" fill="#613f9a" stroke="#613f9a" stroke-width="1.51"/><path d="M1543,492L1541,407L1459,488Z" fill="#7456a5" stroke="#7456a5" stroke-width="1.51"/><path d="M-12,581L-19,664L71,670Z" fill="#b7afd6" stroke="#b7afd6" stroke-width="1.51"/><path d="M-104,490L-11,493L-15,405Z" fill="#c9c5e0" stroke="#c9c5e0" stroke-width="1.51"/><path d="M1369,-26L1279,-107L1283,-22Z" fill="#a88fc6" stroke="#a88fc6" stroke-width="1.51"/><path d="M1200,-109L1370,-107L1112,-113Z" fill="#ae99cb" stroke="#ae99cb" stroke-width="1.51"/><path d="M67,66L-10,146L72,148Z" fill="#e7e6f2" stroke="#e7e6f2" stroke-width="1.51"/><path d="M-103,318L-102,403L-20,319Z" fill="#d5d4e8" stroke="#d5d4e8" stroke-width="1.51"/><path d="M1454,842L1450,747L1365,757Z" fill="#5b3594" stroke="#5b3594" stroke-width="1.51"/><path d="M243,-112L160,-116L245,-30Z" fill="#ebeaf3" stroke="#ebeaf3" stroke-width="1.51"/><path d="M154,-23L76,-31L160,58Z" fill="#ebeaf3" stroke="#ebeaf3" stroke-width="1.51"/><path d="M67,66L-17,65L-10,146Z" fill="#eae9f3" stroke="#eae9f3" stroke-width="1.51"/><path d="M417,-114L160,-116L243,-112Z" fill="#e9e9f3" stroke="#e9e9f3" stroke-width="1.51"/><path d="M845,-117L160,-116L417,-114Z" fill="#dcdcec" stroke="#dcdcec" stroke-width="1.51"/><path d="M1541,236L1458,149L1450,234Z" fill="#8e72b5" stroke="#8e72b5" stroke-width="1.51"/><path d="M1450,234L1458,149L1363,151Z" fill="#9478b9" stroke="#9478b9" stroke-width="1.51"/><path d="M1363,60L1369,-26L1283,-22Z" fill="#a489c3" stroke="#a489c3" stroke-width="1.51"/><path d="M1543,319L1453,315L1455,406Z" fill="#8064ad" stroke="#8064ad" stroke-width="1.51"/><path d="M1364,836L1454,842L1365,757Z" fill="#5a3394" stroke="#5a3394" stroke-width="1.51"/><path d="M1196,1008L1279,1016L1199,927Z" fill="#562e90" stroke="#562e90" stroke-width="1.51"/><path d="M1113,1016L1279,1016L1196,1008Z" fill="#562e90" stroke="#562e90" stroke-width="1.51"/><path d="M74,1016L153,1014L154,925Z" fill="#9c7dbb" stroke="#9c7dbb" stroke-width="1.51"/><path d="M-19,664L-17,752L71,670Z" fill="#b3a7d2" stroke="#b3a7d2" stroke-width="1.51"/><path d="M1449,-21L1369,-26L1363,60Z" fill="#a285c1" stroke="#a285c1" stroke-width="1.51"/><path d="M160,-116L76,-31L154,-23Z" fill="#eeedf5" stroke="#eeedf5" stroke-width="1.51"/><path d="M242,1007L153,1014L335,1008Z" fill="#9576b7" stroke="#9576b7" stroke-width="1.51"/><path d="M154,925L153,1014L242,1007Z" fill="#997bbb" stroke="#997bbb" stroke-width="1.51"/><path d="M69,922L154,925L75,841Z" fill="#a387c2" stroke="#a387c2" stroke-width="1.51"/><path d="M-13,842L69,922L75,841Z" fill="#a78dc5" stroke="#a78dc5" stroke-width="1.51"/><path d="M1365,1012L1372,929L1276,920Z" fill="#52258d" stroke="#52258d" stroke-width="1.51"/><path d="M1459,488L1541,407L1455,406Z" fill="#785ba7" stroke="#785ba7" stroke-width="1.51"/><path d="M1543,492L1459,488L1543,580Z" fill="#6d51a2" stroke="#6d51a2" stroke-width="1.51"/><path d="M1459,488L1449,576L1543,580Z" fill="#6c50a2" stroke="#6c50a2" stroke-width="1.51"/><path d="M1543,580L1449,576L1454,669Z" fill="#664a9f" stroke="#664a9f" stroke-width="1.51"/><path d="M-20,319L-102,403L-15,405Z" fill="#d1cfe5" stroke="#d1cfe5" stroke-width="1.51"/><path d="M-19,664L-98,754L-17,752Z" fill="#b2a4d0" stroke="#b2a4d0" stroke-width="1.51"/><path d="M-103,318L-20,319L-97,232Z" fill="#dbdaeb" stroke="#dbdaeb" stroke-width="1.51"/><path d="M-102,403L-104,490L-15,405Z" fill="#ccc9e2" stroke="#ccc9e2" stroke-width="1.51"/><path d="M-97,232L-20,319L-10,231Z" fill="#dddcec" stroke="#dddcec" stroke-width="1.51"/><path d="M-10,-27L-17,65L67,66Z" fill="#eeecf4" stroke="#eeecf4" stroke-width="1.51"/><path d="M1458,149L1458,60L1363,60Z" fill="#9b7ebc" stroke="#9b7ebc" stroke-width="1.51"/><path d="M1536,142L1458,60L1458,149Z" fill="#9679b9" stroke="#9679b9" stroke-width="1.51"/><path d="M1543,492L1543,319L1541,407Z" fill="#785aa7" stroke="#785aa7" stroke-width="1.51"/><path d="M1541,407L1543,319L1455,406Z" fill="#7c5faa" stroke="#7c5faa" stroke-width="1.51"/><path d="M-104,490L-100,579L-11,493Z" fill="#c4c0dd" stroke="#c4c0dd" stroke-width="1.51"/><path d="M1540,666L1543,580L1454,669Z" fill="#62449b" stroke="#62449b" stroke-width="1.51"/><path d="M1540,666L1454,669L1450,747Z" fill="#5f3e99" stroke="#5f3e99" stroke-width="1.51"/><path d="M-102,403L-103,318L-104,490Z" fill="#d0cee4" stroke="#d0cee4" stroke-width="1.51"/><path d="M-97,232L-10,231L-99,150Z" fill="#e3e2ef" stroke="#e3e2ef" stroke-width="1.51"/><path d="M1372,929L1454,842L1364,836Z" fill="#552a90" stroke="#552a90" stroke-width="1.51"/><path d="M-17,752L-13,842L74,755Z" fill="#ad9acb" stroke="#ad9acb" stroke-width="1.51"/><path d="M69,922L74,1016L154,925Z" fill="#9f81be" stroke="#9f81be" stroke-width="1.51"/><path d="M-101,835L-13,842L-17,752Z" fill="#ad98ca" stroke="#ad98ca" stroke-width="1.51"/><path d="M-99,150L-10,231L-10,146Z" fill="#e5e4f0" stroke="#e5e4f0" stroke-width="1.51"/><path d="M1543,319L1541,236L1453,315Z" fill="#8569b0" stroke="#8569b0" stroke-width="1.51"/><path d="M1543,753L1540,666L1450,747Z" fill="#5c3895" stroke="#5c3895" stroke-width="1.51"/><path d="M-100,579L-101,663L-19,664Z" fill="#bab2d8" stroke="#bab2d8" stroke-width="1.51"/><path d="M-104,490L-101,663L-100,579Z" fill="#bfbbdb" stroke="#bfbbdb" stroke-width="1.51"/><path d="M1369,-26L1370,-107L1279,-107Z" fill="#a88dc6" stroke="#a88dc6" stroke-width="1.51"/><path d="M1279,-107L1370,-107L1200,-109Z" fill="#ac94c9" stroke="#ac94c9" stroke-width="1.51"/><path d="M1451,-107L1370,-107L1369,-26Z" fill="#a688c3" stroke="#a688c3" stroke-width="1.51"/><path d="M160,-116L71,-109L76,-31Z" fill="#f1eff7" stroke="#f1eff7" stroke-width="1.51"/><path d="M76,-31L-10,-27L67,66Z" fill="#f0edf6" stroke="#f0edf6" stroke-width="1.51"/><path d="M1372,929L1449,929L1454,842Z" fill="#52248c" stroke="#52248c" stroke-width="1.51"/><path d="M1279,1016L1365,1012L1276,920Z" fill="#52268d" stroke="#52268d" stroke-width="1.51"/><path d="M-19,1016L74,1016L69,922Z" fill="#a080bd" stroke="#a080bd" stroke-width="1.51"/><path d="M153,1014L74,1016L500,1016Z" fill="#9576b7" stroke="#9576b7" stroke-width="1.51"/><path d="M1538,-28L1449,-21L1458,60Z" fill="#9e7fbd" stroke="#9e7fbd" stroke-width="1.51"/><path d="M1458,60L1449,-21L1363,60Z" fill="#9f81be" stroke="#9f81be" stroke-width="1.51"/><path d="M1541,236L1536,142L1458,149Z" fill="#9073b5" stroke="#9073b5" stroke-width="1.51"/><path d="M71,-109L-10,-27L76,-31Z" fill="#f2f0f7" stroke="#f2f0f7" stroke-width="1.51"/><path d="M-17,65L-99,150L-10,146Z" fill="#eae8f3" stroke="#eae8f3" stroke-width="1.51"/><path d="M-106,66L-99,150L-17,65Z" fill="#ecebf4" stroke="#ecebf4" stroke-width="1.51"/><path d="M-97,232L-99,150L-103,318Z" fill="#e1e0ee" stroke="#e1e0ee" stroke-width="1.51"/><path d="M1452,1016L1449,929L1372,929Z" fill="#4e1d89" stroke="#4e1d89" stroke-width="1.51"/><path d="M1537,837L1543,753L1450,747Z" fill="#573091" stroke="#573091" stroke-width="1.51"/><path d="M-13,842L-17,921L69,922Z" fill="#a68ac4" stroke="#a68ac4" stroke-width="1.51"/><path d="M-101,663L-98,754L-19,664Z" fill="#b6a9d3" stroke="#b6a9d3" stroke-width="1.51"/><path d="M1537,837L1450,747L1454,842Z" fill="#562d91" stroke="#562d91" stroke-width="1.51"/><path d="M1540,666L1543,753L1543,580Z" fill="#5f3e98" stroke="#5f3e98" stroke-width="1.51"/><path d="M-100,921L-17,921L-13,842Z" fill="#a78cc5" stroke="#a78cc5" stroke-width="1.51"/><path d="M1545,928L1537,837L1454,842Z" fill="#50228b" stroke="#50228b" stroke-width="1.51"/><path d="M1541,236L1542,61L1536,142Z" fill="#9273b6" stroke="#9273b6" stroke-width="1.51"/><path d="M1536,142L1542,61L1458,60Z" fill="#9778b9" stroke="#9778b9" stroke-width="1.51"/><path d="M1449,-21L1451,-107L1369,-26Z" fill="#a385c1" stroke="#a385c1" stroke-width="1.51"/><path d="M1543,319L1542,61L1541,236Z" fill="#8c6eb2" stroke="#8c6eb2" stroke-width="1.51"/><path d="M-107,-21L-106,66L-17,65Z" fill="#f0eff6" stroke="#f0eff6" stroke-width="1.51"/><path d="M-99,150L-106,66L-103,318Z" fill="#e7e6f1" stroke="#e7e6f1" stroke-width="1.51"/><path d="M-103,318L-106,66L-104,490Z" fill="#dbdbec" stroke="#dbdbec" stroke-width="1.51"/><path d="M-107,-21L-17,65L-10,-27Z" fill="#f2f0f6" stroke="#f2f0f6" stroke-width="1.51"/><path d="M-98,754L-101,835L-17,752Z" fill="#b09dcc" stroke="#b09dcc" stroke-width="1.51"/><path d="M-17,921L-19,1016L69,922Z" fill="#a284c0" stroke="#a284c0" stroke-width="1.51"/><path d="M-101,663L-101,835L-98,754Z" fill="#b2a2cf" stroke="#b2a2cf" stroke-width="1.51"/><path d="M-104,490L-101,835L-101,663Z" fill="#b8afd6" stroke="#b8afd6" stroke-width="1.51"/><path d="M1538,-28L1451,-107L1449,-21Z" fill="#a181bf" stroke="#a181bf" stroke-width="1.51"/><path d="M1370,-107L1451,-107L1112,-113Z" fill="#ab91c7" stroke="#ab91c7" stroke-width="1.51"/><path d="M71,-109L-17,-117L-10,-27Z" fill="#f4f2f8" stroke="#f4f2f8" stroke-width="1.51"/><path d="M160,-116L-17,-117L71,-109Z" fill="#f3f2f8" stroke="#f3f2f8" stroke-width="1.51"/><path d="M845,-117L-17,-117L160,-116Z" fill="#e6e5f1" stroke="#e6e5f1" stroke-width="1.51"/><path d="M1449,929L1545,928L1454,842Z" fill="#4f1f8a" stroke="#4f1f8a" stroke-width="1.51"/><path d="M1365,1012L1452,1016L1372,929Z" fill="#4d1c89" stroke="#4d1c89" stroke-width="1.51"/><path d="M1279,1016L1452,1016L1365,1012Z" fill="#4d1c88" stroke="#4d1c88" stroke-width="1.51"/><path d="M-100,921L-19,1016L-17,921Z" fill="#a486c1" stroke="#a486c1" stroke-width="1.51"/><path d="M1542,61L1538,-28L1458,60Z" fill="#9b7cbb" stroke="#9b7cbb" stroke-width="1.51"/><path d="M-101,835L-100,921L-13,842Z" fill="#ab90c7" stroke="#ab90c7" stroke-width="1.51"/><path d="M-105,-114L-107,-21L-10,-27Z" fill="#f5f4f9" stroke="#f5f4f9" stroke-width="1.51"/><path d="M-106,66L-107,-21L-104,490Z" fill="#e7e6f2" stroke="#e7e6f2" stroke-width="1.51"/><path d="M1543,1014L1545,928L1449,929Z" fill="#4a1686" stroke="#4a1686" stroke-width="1.51"/><path d="M1537,837L1545,928L1543,753Z" fill="#51258c" stroke="#51258c" stroke-width="1.51"/><path d="M1543,753L1545,928L1543,580Z" fill="#573191" stroke="#573191" stroke-width="1.51"/><path d="M1543,580L1545,928L1543,492Z" fill="#5f3e98" stroke="#5f3e98" stroke-width="1.51"/><path d="M1543,492L1545,928L1543,319Z" fill="#664a9e" stroke="#664a9e" stroke-width="1.51"/><path d="M1538,-28L1541,-107L1451,-107Z" fill="#a181be" stroke="#a181be" stroke-width="1.51"/><path d="M1451,-107L1541,-107L1112,-113Z" fill="#a88cc5" stroke="#a88cc5" stroke-width="1.51"/><path d="M1112,-113L1541,-107L845,-117Z" fill="#b19fce" stroke="#b19fce" stroke-width="1.51"/><path d="M1542,61L1541,-107L1538,-28Z" fill="#9d7cbb" stroke="#9d7cbb" stroke-width="1.51"/><path d="M-17,-117L-105,-114L-10,-27Z" fill="#f6f5f9" stroke="#f6f5f9" stroke-width="1.51"/><path d="M1452,1016L1543,1014L1449,929Z" fill="#491685" stroke="#491685" stroke-width="1.51"/><path d="M-101,835L-102,1013L-100,921Z" fill="#a78ac4" stroke="#a78ac4" stroke-width="1.51"/><path d="M-100,921L-102,1013L-19,1016Z" fill="#a383bf" stroke="#a383bf" stroke-width="1.51"/><path d="M-104,490L-102,1013L-101,835Z" fill="#b09ecd" stroke="#b09ecd" stroke-width="1.51"/><path d="M-107,-21L-102,1013L-104,490Z" fill="#c7c3e0" stroke="#c7c3e0" stroke-width="1.51"/></svg>